<mxfile host="app.diagrams.net" agent="Mozilla/5.0 (Windows NT 10.0; Win64; x64) AppleWebKit/537.36 (KHTML, like Gecko) Chrome/131.0.0.0 Safari/537.36" version="24.8.8">
  <diagram id="R2lEEEUBdFMjLlhIrx00" name="Page-1">
    <mxGraphModel grid="1" page="1" gridSize="10" guides="1" tooltips="1" connect="1" arrows="1" fold="1" pageScale="1" pageWidth="850" pageHeight="1100" math="0" shadow="0" extFonts="Permanent Marker^https://fonts.googleapis.com/css?family=Permanent+Marker">
      <root>
        <mxCell id="0" />
        <mxCell id="1" parent="0" />
        <mxCell id="yg3bk4Q1aioawXfUhNpW-12" value="Clase" style="shape=table;startSize=30;container=1;collapsible=1;childLayout=tableLayout;fixedRows=1;rowLines=0;fontStyle=1;align=center;resizeLast=1;" vertex="1" parent="1">
          <mxGeometry x="-110" y="870" width="269.91" height="140" as="geometry" />
        </mxCell>
        <mxCell id="yg3bk4Q1aioawXfUhNpW-13" value="" style="shape=partialRectangle;collapsible=0;dropTarget=0;pointerEvents=0;fillColor=none;points=[[0,0.5],[1,0.5]];portConstraint=eastwest;top=0;left=0;right=0;bottom=1;" vertex="1" parent="yg3bk4Q1aioawXfUhNpW-12">
          <mxGeometry y="30" width="269.91" height="30" as="geometry" />
        </mxCell>
        <mxCell id="yg3bk4Q1aioawXfUhNpW-14" value="PK" style="shape=partialRectangle;overflow=hidden;connectable=0;fillColor=none;top=0;left=0;bottom=0;right=0;fontStyle=1;" vertex="1" parent="yg3bk4Q1aioawXfUhNpW-13">
          <mxGeometry width="30" height="30" as="geometry">
            <mxRectangle width="30" height="30" as="alternateBounds" />
          </mxGeometry>
        </mxCell>
        <mxCell id="yg3bk4Q1aioawXfUhNpW-15" value="cod_clase int NOT NULL" style="shape=partialRectangle;overflow=hidden;connectable=0;fillColor=none;top=0;left=0;bottom=0;right=0;align=left;spacingLeft=6;fontStyle=5;" vertex="1" parent="yg3bk4Q1aioawXfUhNpW-13">
          <mxGeometry x="30" width="239.91000000000003" height="30" as="geometry">
            <mxRectangle width="239.91000000000003" height="30" as="alternateBounds" />
          </mxGeometry>
        </mxCell>
        <mxCell id="yg3bk4Q1aioawXfUhNpW-16" value="" style="shape=partialRectangle;collapsible=0;dropTarget=0;pointerEvents=0;fillColor=none;points=[[0,0.5],[1,0.5]];portConstraint=eastwest;top=0;left=0;right=0;bottom=0;" vertex="1" parent="yg3bk4Q1aioawXfUhNpW-12">
          <mxGeometry y="60" width="269.91" height="80" as="geometry" />
        </mxCell>
        <mxCell id="yg3bk4Q1aioawXfUhNpW-17" value="" style="shape=partialRectangle;overflow=hidden;connectable=0;fillColor=none;top=0;left=0;bottom=0;right=0;" vertex="1" parent="yg3bk4Q1aioawXfUhNpW-16">
          <mxGeometry width="30" height="80" as="geometry">
            <mxRectangle width="30" height="80" as="alternateBounds" />
          </mxGeometry>
        </mxCell>
        <mxCell id="yg3bk4Q1aioawXfUhNpW-18" value="fecha_clase           date NOT NULL&#xa;hora_clase            time NOT NULL&#xa;instrumento            varchar(50) NOT NULL" style="shape=partialRectangle;overflow=hidden;connectable=0;fillColor=none;top=0;left=0;bottom=0;right=0;align=left;spacingLeft=6;verticalAlign=top;fontSize=13;" vertex="1" parent="yg3bk4Q1aioawXfUhNpW-16">
          <mxGeometry x="30" width="239.91000000000003" height="80" as="geometry">
            <mxRectangle width="239.91000000000003" height="80" as="alternateBounds" />
          </mxGeometry>
        </mxCell>
        <mxCell id="CCJhi8ESBiJcHN0D21jL-1" style="edgeStyle=orthogonalEdgeStyle;rounded=0;orthogonalLoop=1;jettySize=auto;html=1;exitX=1;exitY=0.5;exitDx=0;exitDy=0;" edge="1" parent="yg3bk4Q1aioawXfUhNpW-12" source="yg3bk4Q1aioawXfUhNpW-16" target="yg3bk4Q1aioawXfUhNpW-16">
          <mxGeometry relative="1" as="geometry" />
        </mxCell>
        <mxCell id="CCJhi8ESBiJcHN0D21jL-36" style="edgeStyle=orthogonalEdgeStyle;rounded=0;orthogonalLoop=1;jettySize=auto;html=1;exitX=0.5;exitY=1;exitDx=0;exitDy=0;entryX=0.998;entryY=0.29;entryDx=0;entryDy=0;entryPerimeter=0;" edge="1" parent="1" source="yg3bk4Q1aioawXfUhNpW-19" target="yg3bk4Q1aioawXfUhNpW-16">
          <mxGeometry relative="1" as="geometry" />
        </mxCell>
        <mxCell id="yg3bk4Q1aioawXfUhNpW-19" value="Imparte" style="shape=rhombus;perimeter=rhombusPerimeter;whiteSpace=wrap;html=1;align=center;" vertex="1" parent="1">
          <mxGeometry x="260.21000000000004" y="755" width="120" height="60" as="geometry" />
        </mxCell>
        <mxCell id="yg3bk4Q1aioawXfUhNpW-20" value="Asiste" style="shape=rhombus;perimeter=rhombusPerimeter;whiteSpace=wrap;html=1;align=center;" vertex="1" parent="1">
          <mxGeometry x="-350" y="725" width="120" height="60" as="geometry" />
        </mxCell>
        <mxCell id="yg3bk4Q1aioawXfUhNpW-21" value="Evalua" style="shape=rhombus;perimeter=rhombusPerimeter;whiteSpace=wrap;html=1;align=center;" vertex="1" parent="1">
          <mxGeometry x="-20.090000000000003" y="485" width="120" height="60" as="geometry" />
        </mxCell>
        <mxCell id="yg3bk4Q1aioawXfUhNpW-28" value="" style="endArrow=none;html=1;rounded=0;exitX=0;exitY=0.5;exitDx=0;exitDy=0;entryX=1;entryY=0.5;entryDx=0;entryDy=0;" edge="1" parent="1" source="yg3bk4Q1aioawXfUhNpW-21" target="yg3bk4Q1aioawXfUhNpW-101">
          <mxGeometry relative="1" as="geometry">
            <mxPoint x="-20" y="507.5" as="sourcePoint" />
            <mxPoint x="-100" y="522.5" as="targetPoint" />
          </mxGeometry>
        </mxCell>
        <mxCell id="yg3bk4Q1aioawXfUhNpW-29" value="N" style="resizable=0;html=1;whiteSpace=wrap;align=right;verticalAlign=bottom;" connectable="0" vertex="1" parent="yg3bk4Q1aioawXfUhNpW-28">
          <mxGeometry x="1" relative="1" as="geometry">
            <mxPoint x="15" y="25" as="offset" />
          </mxGeometry>
        </mxCell>
        <mxCell id="yg3bk4Q1aioawXfUhNpW-30" value="" style="endArrow=none;html=1;rounded=0;exitX=1;exitY=0.5;exitDx=0;exitDy=0;entryX=0;entryY=0.5;entryDx=0;entryDy=0;" edge="1" parent="1" source="yg3bk4Q1aioawXfUhNpW-21" target="yg3bk4Q1aioawXfUhNpW-109">
          <mxGeometry relative="1" as="geometry">
            <mxPoint x="310" y="715" as="sourcePoint" />
            <mxPoint x="150.05000000000018" y="507.5" as="targetPoint" />
          </mxGeometry>
        </mxCell>
        <mxCell id="yg3bk4Q1aioawXfUhNpW-31" value="N" style="resizable=0;html=1;whiteSpace=wrap;align=right;verticalAlign=bottom;" connectable="0" vertex="1" parent="yg3bk4Q1aioawXfUhNpW-30">
          <mxGeometry x="1" relative="1" as="geometry">
            <mxPoint x="-10" as="offset" />
          </mxGeometry>
        </mxCell>
        <mxCell id="yg3bk4Q1aioawXfUhNpW-32" value="fecha_evaluacion date" style="ellipse;whiteSpace=wrap;html=1;align=center;fontStyle=4;" vertex="1" parent="1">
          <mxGeometry x="99.91" y="635" width="120" height="40" as="geometry" />
        </mxCell>
        <mxCell id="yg3bk4Q1aioawXfUhNpW-52" style="edgeStyle=orthogonalEdgeStyle;rounded=0;orthogonalLoop=1;jettySize=auto;html=1;exitX=0.5;exitY=0;exitDx=0;exitDy=0;entryX=0.5;entryY=1;entryDx=0;entryDy=0;strokeColor=none;" edge="1" parent="1" source="yg3bk4Q1aioawXfUhNpW-33" target="yg3bk4Q1aioawXfUhNpW-21">
          <mxGeometry relative="1" as="geometry" />
        </mxCell>
        <mxCell id="yg3bk4Q1aioawXfUhNpW-33" value="tipo enum" style="ellipse;whiteSpace=wrap;html=1;align=center;strokeColor=default;" vertex="1" parent="1">
          <mxGeometry x="-120" y="635" width="100" height="40" as="geometry" />
        </mxCell>
        <mxCell id="yg3bk4Q1aioawXfUhNpW-34" value="nota int" style="ellipse;whiteSpace=wrap;html=1;align=center;" vertex="1" parent="1">
          <mxGeometry x="-10.090000000000003" y="635" width="100" height="40" as="geometry" />
        </mxCell>
        <mxCell id="yg3bk4Q1aioawXfUhNpW-36" value="Persona" style="shape=table;startSize=30;container=1;collapsible=1;childLayout=tableLayout;fixedRows=1;rowLines=0;fontStyle=1;align=center;resizeLast=1;fontSize=15;" vertex="1" parent="1">
          <mxGeometry x="-125.09" y="65" width="330" height="175" as="geometry" />
        </mxCell>
        <mxCell id="yg3bk4Q1aioawXfUhNpW-37" value="" style="shape=partialRectangle;collapsible=0;dropTarget=0;pointerEvents=0;fillColor=none;points=[[0,0.5],[1,0.5]];portConstraint=eastwest;top=0;left=0;right=0;bottom=1;" vertex="1" parent="yg3bk4Q1aioawXfUhNpW-36">
          <mxGeometry y="30" width="330" height="30" as="geometry" />
        </mxCell>
        <mxCell id="yg3bk4Q1aioawXfUhNpW-38" value="PK" style="shape=partialRectangle;overflow=hidden;connectable=0;fillColor=none;top=0;left=0;bottom=0;right=0;fontStyle=1;" vertex="1" parent="yg3bk4Q1aioawXfUhNpW-37">
          <mxGeometry width="30" height="30" as="geometry">
            <mxRectangle width="30" height="30" as="alternateBounds" />
          </mxGeometry>
        </mxCell>
        <mxCell id="yg3bk4Q1aioawXfUhNpW-39" value="id_persona int  NOT NULL" style="shape=partialRectangle;overflow=hidden;connectable=0;fillColor=none;top=0;left=0;bottom=0;right=0;align=left;spacingLeft=6;fontStyle=5;" vertex="1" parent="yg3bk4Q1aioawXfUhNpW-37">
          <mxGeometry x="30" width="300" height="30" as="geometry">
            <mxRectangle width="300" height="30" as="alternateBounds" />
          </mxGeometry>
        </mxCell>
        <mxCell id="yg3bk4Q1aioawXfUhNpW-40" value="" style="shape=partialRectangle;collapsible=0;dropTarget=0;pointerEvents=0;fillColor=none;points=[[0,0.5],[1,0.5]];portConstraint=eastwest;top=0;left=0;right=0;bottom=0;" vertex="1" parent="yg3bk4Q1aioawXfUhNpW-36">
          <mxGeometry y="60" width="330" height="115" as="geometry" />
        </mxCell>
        <mxCell id="yg3bk4Q1aioawXfUhNpW-41" value="" style="shape=partialRectangle;overflow=hidden;connectable=0;fillColor=none;top=0;left=0;bottom=0;right=0;" vertex="1" parent="yg3bk4Q1aioawXfUhNpW-40">
          <mxGeometry width="30" height="115" as="geometry">
            <mxRectangle width="30" height="115" as="alternateBounds" />
          </mxGeometry>
        </mxCell>
        <mxCell id="yg3bk4Q1aioawXfUhNpW-42" value="nombre             varchar(50 NOT NULL&#xa;DNI                   char(9) UNIQUE NOT NULL&#xa;apellidoUno      varchar(50) NOT NULL&#xa;apellidoDos      varchar(50)&#xa;" style="shape=partialRectangle;overflow=hidden;connectable=0;fillColor=none;top=0;left=0;bottom=0;right=0;align=left;spacingLeft=6;fontSize=13;" vertex="1" parent="yg3bk4Q1aioawXfUhNpW-40">
          <mxGeometry x="30" width="300" height="115" as="geometry">
            <mxRectangle width="300" height="115" as="alternateBounds" />
          </mxGeometry>
        </mxCell>
        <mxCell id="yg3bk4Q1aioawXfUhNpW-43" value="" style="resizable=0;html=1;whiteSpace=wrap;align=right;verticalAlign=bottom;" connectable="0" vertex="1" parent="1">
          <mxGeometry x="-24.739999999999995" y="65" as="geometry" />
        </mxCell>
        <mxCell id="yg3bk4Q1aioawXfUhNpW-54" value="" style="endArrow=none;dashed=1;html=1;rounded=0;entryX=0.5;entryY=1;entryDx=0;entryDy=0;exitX=0.5;exitY=0;exitDx=0;exitDy=0;" edge="1" parent="1" source="yg3bk4Q1aioawXfUhNpW-33" target="yg3bk4Q1aioawXfUhNpW-21">
          <mxGeometry width="50" height="50" relative="1" as="geometry">
            <mxPoint x="-20" y="615" as="sourcePoint" />
            <mxPoint x="40" y="545" as="targetPoint" />
          </mxGeometry>
        </mxCell>
        <mxCell id="CCJhi8ESBiJcHN0D21jL-3" value="N" style="resizable=0;html=1;whiteSpace=wrap;align=right;verticalAlign=bottom;" connectable="0" vertex="1" parent="1">
          <mxGeometry x="-400.0026471416801" y="194.99737133906484" as="geometry" />
        </mxCell>
        <mxCell id="yg3bk4Q1aioawXfUhNpW-56" value="" style="endArrow=none;dashed=1;html=1;rounded=0;entryX=0.5;entryY=1;entryDx=0;entryDy=0;exitX=0.5;exitY=0;exitDx=0;exitDy=0;" edge="1" parent="1" source="yg3bk4Q1aioawXfUhNpW-34" target="yg3bk4Q1aioawXfUhNpW-21">
          <mxGeometry width="50" height="50" relative="1" as="geometry">
            <mxPoint x="-70" y="645" as="sourcePoint" />
            <mxPoint x="45" y="555" as="targetPoint" />
          </mxGeometry>
        </mxCell>
        <mxCell id="yg3bk4Q1aioawXfUhNpW-57" value="" style="endArrow=none;dashed=1;html=1;rounded=0;entryX=0.5;entryY=1;entryDx=0;entryDy=0;exitX=0.5;exitY=0;exitDx=0;exitDy=0;" edge="1" parent="1" source="yg3bk4Q1aioawXfUhNpW-32" target="yg3bk4Q1aioawXfUhNpW-21">
          <mxGeometry width="50" height="50" relative="1" as="geometry">
            <mxPoint x="-60" y="655" as="sourcePoint" />
            <mxPoint x="55" y="565" as="targetPoint" />
          </mxGeometry>
        </mxCell>
        <mxCell id="CCJhi8ESBiJcHN0D21jL-25" style="edgeStyle=orthogonalEdgeStyle;rounded=0;orthogonalLoop=1;jettySize=auto;html=1;exitX=0;exitY=0.5;exitDx=0;exitDy=0;entryX=1;entryY=0.5;entryDx=0;entryDy=0;strokeWidth=2;" edge="1" parent="1" source="CCJhi8ESBiJcHN0D21jL-27" target="CCJhi8ESBiJcHN0D21jL-14">
          <mxGeometry relative="1" as="geometry" />
        </mxCell>
        <mxCell id="CCJhi8ESBiJcHN0D21jL-26" style="edgeStyle=orthogonalEdgeStyle;rounded=0;orthogonalLoop=1;jettySize=auto;html=1;exitX=1;exitY=0.5;exitDx=0;exitDy=0;entryX=0;entryY=0.5;entryDx=0;entryDy=0;" edge="1" parent="1" source="CCJhi8ESBiJcHN0D21jL-27" target="yg3bk4Q1aioawXfUhNpW-40">
          <mxGeometry relative="1" as="geometry" />
        </mxCell>
        <mxCell id="yg3bk4Q1aioawXfUhNpW-58" value="d" style="ellipse;whiteSpace=wrap;html=1;aspect=fixed;" vertex="1" parent="1">
          <mxGeometry x="24.909999999999997" y="305" width="30" height="30" as="geometry" />
        </mxCell>
        <mxCell id="CCJhi8ESBiJcHN0D21jL-10" value="Telefono" style="shape=table;startSize=30;container=1;collapsible=1;childLayout=tableLayout;fixedRows=1;rowLines=0;fontStyle=1;align=center;resizeLast=1;html=1;whiteSpace=wrap;fontSize=15;" vertex="1" parent="1">
          <mxGeometry x="-650" y="90" width="230" height="135" as="geometry" />
        </mxCell>
        <mxCell id="CCJhi8ESBiJcHN0D21jL-11" value="" style="shape=tableRow;horizontal=0;startSize=0;swimlaneHead=0;swimlaneBody=0;fillColor=none;collapsible=0;dropTarget=0;points=[[0,0.5],[1,0.5]];portConstraint=eastwest;top=0;left=0;right=0;bottom=0;html=1;" vertex="1" parent="CCJhi8ESBiJcHN0D21jL-10">
          <mxGeometry y="30" width="230" height="30" as="geometry" />
        </mxCell>
        <mxCell id="CCJhi8ESBiJcHN0D21jL-12" value="PK,FK1" style="shape=partialRectangle;connectable=0;fillColor=none;top=0;left=0;bottom=0;right=0;fontStyle=1;overflow=hidden;html=1;whiteSpace=wrap;fontSize=13;" vertex="1" parent="CCJhi8ESBiJcHN0D21jL-11">
          <mxGeometry width="60" height="30" as="geometry">
            <mxRectangle width="60" height="30" as="alternateBounds" />
          </mxGeometry>
        </mxCell>
        <mxCell id="CCJhi8ESBiJcHN0D21jL-13" value="id_persona int NOT NULL" style="shape=partialRectangle;connectable=0;fillColor=none;top=0;left=0;bottom=0;right=0;align=left;spacingLeft=6;fontStyle=5;overflow=hidden;html=1;whiteSpace=wrap;fontSize=13;" vertex="1" parent="CCJhi8ESBiJcHN0D21jL-11">
          <mxGeometry x="60" width="170" height="30" as="geometry">
            <mxRectangle width="170" height="30" as="alternateBounds" />
          </mxGeometry>
        </mxCell>
        <mxCell id="CCJhi8ESBiJcHN0D21jL-14" value="" style="shape=tableRow;horizontal=0;startSize=0;swimlaneHead=0;swimlaneBody=0;fillColor=none;collapsible=0;dropTarget=0;points=[[0,0.5],[1,0.5]];portConstraint=eastwest;top=0;left=0;right=0;bottom=1;html=1;" vertex="1" parent="CCJhi8ESBiJcHN0D21jL-10">
          <mxGeometry y="60" width="230" height="35" as="geometry" />
        </mxCell>
        <mxCell id="CCJhi8ESBiJcHN0D21jL-15" value="PK" style="shape=partialRectangle;connectable=0;fillColor=none;top=0;left=0;bottom=0;right=0;fontStyle=1;overflow=hidden;html=1;whiteSpace=wrap;fontSize=13;" vertex="1" parent="CCJhi8ESBiJcHN0D21jL-14">
          <mxGeometry width="60" height="35" as="geometry">
            <mxRectangle width="60" height="35" as="alternateBounds" />
          </mxGeometry>
        </mxCell>
        <mxCell id="CCJhi8ESBiJcHN0D21jL-16" value="telefono char(9) NOT NULL" style="shape=partialRectangle;connectable=0;fillColor=none;top=0;left=0;bottom=0;right=0;align=left;spacingLeft=6;fontStyle=5;overflow=hidden;html=1;whiteSpace=wrap;fontSize=13;" vertex="1" parent="CCJhi8ESBiJcHN0D21jL-14">
          <mxGeometry x="60" width="170" height="35" as="geometry">
            <mxRectangle width="170" height="35" as="alternateBounds" />
          </mxGeometry>
        </mxCell>
        <mxCell id="yg3bk4Q1aioawXfUhNpW-89" value="" style="endArrow=none;html=1;rounded=0;exitX=0.5;exitY=0;exitDx=0;exitDy=0;" edge="1" parent="1" source="yg3bk4Q1aioawXfUhNpW-58" target="yg3bk4Q1aioawXfUhNpW-40">
          <mxGeometry width="50" height="50" relative="1" as="geometry">
            <mxPoint x="40.26" y="305" as="sourcePoint" />
            <mxPoint x="195.26" y="275" as="targetPoint" />
          </mxGeometry>
        </mxCell>
        <mxCell id="yg3bk4Q1aioawXfUhNpW-93" value="" style="endArrow=none;html=1;rounded=0;exitX=1;exitY=0.5;exitDx=0;exitDy=0;entryX=0.5;entryY=0;entryDx=0;entryDy=0;" edge="1" parent="1" source="yg3bk4Q1aioawXfUhNpW-58" target="yg3bk4Q1aioawXfUhNpW-108">
          <mxGeometry width="50" height="50" relative="1" as="geometry">
            <mxPoint x="150" y="325" as="sourcePoint" />
            <mxPoint x="285.0500000000002" y="435" as="targetPoint" />
          </mxGeometry>
        </mxCell>
        <mxCell id="yg3bk4Q1aioawXfUhNpW-92" value="" style="endArrow=none;html=1;rounded=0;exitX=0.5;exitY=0;exitDx=0;exitDy=0;entryX=0;entryY=0.5;entryDx=0;entryDy=0;" edge="1" parent="1" source="yg3bk4Q1aioawXfUhNpW-94" target="yg3bk4Q1aioawXfUhNpW-58">
          <mxGeometry width="50" height="50" relative="1" as="geometry">
            <mxPoint x="-240" y="435" as="sourcePoint" />
            <mxPoint x="200" y="275" as="targetPoint" />
          </mxGeometry>
        </mxCell>
        <mxCell id="yg3bk4Q1aioawXfUhNpW-94" value="&lt;span style=&quot;font-weight: 400; text-wrap-mode: wrap;&quot;&gt;Estudiante&lt;/span&gt;" style="shape=table;startSize=30;container=1;collapsible=1;childLayout=tableLayout;fixedRows=1;rowLines=0;fontStyle=1;align=center;resizeLast=1;html=1;fontSize=15;" vertex="1" parent="1">
          <mxGeometry x="-440" y="440" width="300" height="120" as="geometry" />
        </mxCell>
        <mxCell id="yg3bk4Q1aioawXfUhNpW-98" value="" style="shape=tableRow;horizontal=0;startSize=0;swimlaneHead=0;swimlaneBody=0;fillColor=none;collapsible=0;dropTarget=0;points=[[0,0.5],[1,0.5]];portConstraint=eastwest;top=0;left=0;right=0;bottom=0;" vertex="1" parent="yg3bk4Q1aioawXfUhNpW-94">
          <mxGeometry y="30" width="300" height="30" as="geometry" />
        </mxCell>
        <mxCell id="yg3bk4Q1aioawXfUhNpW-99" value="" style="shape=partialRectangle;connectable=0;fillColor=none;top=0;left=0;bottom=0;right=0;editable=1;overflow=hidden;whiteSpace=wrap;html=1;" vertex="1" parent="yg3bk4Q1aioawXfUhNpW-98">
          <mxGeometry width="30" height="30" as="geometry">
            <mxRectangle width="30" height="30" as="alternateBounds" />
          </mxGeometry>
        </mxCell>
        <mxCell id="yg3bk4Q1aioawXfUhNpW-100" value="&lt;span style=&quot;text-wrap-mode: nowrap; font-size: 13px;&quot;&gt;fecha_nac&amp;nbsp;&amp;nbsp;&amp;nbsp;&amp;nbsp;&lt;span style=&quot;white-space-collapse: preserve;&quot;&gt;&#x9;&lt;/span&gt;&lt;span style=&quot;white-space-collapse: preserve;&quot;&gt;&#x9;&lt;/span&gt;date&lt;/span&gt;" style="shape=partialRectangle;connectable=0;fillColor=none;top=0;left=0;bottom=0;right=0;align=left;spacingLeft=6;overflow=hidden;whiteSpace=wrap;html=1;" vertex="1" parent="yg3bk4Q1aioawXfUhNpW-98">
          <mxGeometry x="30" width="270" height="30" as="geometry">
            <mxRectangle width="270" height="30" as="alternateBounds" />
          </mxGeometry>
        </mxCell>
        <mxCell id="yg3bk4Q1aioawXfUhNpW-101" value="" style="shape=tableRow;horizontal=0;startSize=0;swimlaneHead=0;swimlaneBody=0;fillColor=none;collapsible=0;dropTarget=0;points=[[0,0.5],[1,0.5]];portConstraint=eastwest;top=0;left=0;right=0;bottom=0;" vertex="1" parent="yg3bk4Q1aioawXfUhNpW-94">
          <mxGeometry y="60" width="300" height="30" as="geometry" />
        </mxCell>
        <mxCell id="yg3bk4Q1aioawXfUhNpW-102" value="" style="shape=partialRectangle;connectable=0;fillColor=none;top=0;left=0;bottom=0;right=0;editable=1;overflow=hidden;whiteSpace=wrap;html=1;" vertex="1" parent="yg3bk4Q1aioawXfUhNpW-101">
          <mxGeometry width="30" height="30" as="geometry">
            <mxRectangle width="30" height="30" as="alternateBounds" />
          </mxGeometry>
        </mxCell>
        <mxCell id="yg3bk4Q1aioawXfUhNpW-103" value="&lt;span style=&quot;font-size: 13px; text-wrap-mode: nowrap;&quot;&gt;direccion&amp;nbsp;&amp;nbsp;&amp;nbsp;&amp;nbsp;&lt;/span&gt;&lt;span style=&quot;font-size: 13px; white-space: pre;&quot;&gt;&#x9;&lt;/span&gt;&lt;span style=&quot;font-size: 13px; white-space: pre;&quot;&gt;&#x9;&lt;/span&gt;&lt;span style=&quot;font-size: 13px; text-wrap-mode: nowrap;&quot;&gt;varchar(100) NOT NULL&lt;/span&gt;" style="shape=partialRectangle;connectable=0;fillColor=none;top=0;left=0;bottom=0;right=0;align=left;spacingLeft=6;overflow=hidden;whiteSpace=wrap;html=1;" vertex="1" parent="yg3bk4Q1aioawXfUhNpW-101">
          <mxGeometry x="30" width="270" height="30" as="geometry">
            <mxRectangle width="270" height="30" as="alternateBounds" />
          </mxGeometry>
        </mxCell>
        <mxCell id="yg3bk4Q1aioawXfUhNpW-104" value="" style="shape=tableRow;horizontal=0;startSize=0;swimlaneHead=0;swimlaneBody=0;fillColor=none;collapsible=0;dropTarget=0;points=[[0,0.5],[1,0.5]];portConstraint=eastwest;top=0;left=0;right=0;bottom=0;" vertex="1" parent="yg3bk4Q1aioawXfUhNpW-94">
          <mxGeometry y="90" width="300" height="30" as="geometry" />
        </mxCell>
        <mxCell id="yg3bk4Q1aioawXfUhNpW-105" value="" style="shape=partialRectangle;connectable=0;fillColor=none;top=0;left=0;bottom=0;right=0;editable=1;overflow=hidden;whiteSpace=wrap;html=1;" vertex="1" parent="yg3bk4Q1aioawXfUhNpW-104">
          <mxGeometry width="30" height="30" as="geometry">
            <mxRectangle width="30" height="30" as="alternateBounds" />
          </mxGeometry>
        </mxCell>
        <mxCell id="yg3bk4Q1aioawXfUhNpW-106" value="&lt;span style=&quot;font-size: 13px; text-wrap-mode: nowrap;&quot;&gt;num_matricula&amp;nbsp;&lt;/span&gt;&lt;span style=&quot;font-size: 13px; white-space: pre;&quot;&gt;&#x9;&lt;/span&gt;&lt;span style=&quot;font-size: 13px; text-wrap-mode: nowrap;&quot;&gt;int NOT NULL&lt;/span&gt;" style="shape=partialRectangle;connectable=0;fillColor=none;top=0;left=0;bottom=0;right=0;align=left;spacingLeft=6;overflow=hidden;whiteSpace=wrap;html=1;" vertex="1" parent="yg3bk4Q1aioawXfUhNpW-104">
          <mxGeometry x="30" width="270" height="30" as="geometry">
            <mxRectangle width="270" height="30" as="alternateBounds" />
          </mxGeometry>
        </mxCell>
        <mxCell id="CCJhi8ESBiJcHN0D21jL-23" value="1" style="text;html=1;align=center;verticalAlign=middle;resizable=0;points=[];autosize=1;strokeColor=none;fillColor=none;" vertex="1" parent="1">
          <mxGeometry x="-155.09" y="180" width="30" height="30" as="geometry" />
        </mxCell>
        <mxCell id="yg3bk4Q1aioawXfUhNpW-108" value="&lt;span style=&quot;font-weight: 400; text-wrap-mode: wrap;&quot;&gt;Profesor&lt;/span&gt;" style="shape=table;startSize=30;container=1;collapsible=1;childLayout=tableLayout;fixedRows=1;rowLines=0;fontStyle=1;align=center;resizeLast=1;html=1;fontSize=15;" vertex="1" parent="1">
          <mxGeometry x="200.21" y="470" width="240" height="90" as="geometry" />
        </mxCell>
        <mxCell id="yg3bk4Q1aioawXfUhNpW-109" value="" style="shape=tableRow;horizontal=0;startSize=0;swimlaneHead=0;swimlaneBody=0;fillColor=none;collapsible=0;dropTarget=0;points=[[0,0.5],[1,0.5]];portConstraint=eastwest;top=0;left=0;right=0;bottom=0;" vertex="1" parent="yg3bk4Q1aioawXfUhNpW-108">
          <mxGeometry y="30" width="240" height="30" as="geometry" />
        </mxCell>
        <mxCell id="yg3bk4Q1aioawXfUhNpW-110" value="" style="shape=partialRectangle;connectable=0;fillColor=none;top=0;left=0;bottom=0;right=0;editable=1;overflow=hidden;whiteSpace=wrap;html=1;" vertex="1" parent="yg3bk4Q1aioawXfUhNpW-109">
          <mxGeometry width="30" height="30" as="geometry">
            <mxRectangle width="30" height="30" as="alternateBounds" />
          </mxGeometry>
        </mxCell>
        <mxCell id="yg3bk4Q1aioawXfUhNpW-111" value="&lt;span style=&quot;text-wrap-mode: nowrap;&quot;&gt;especialidad&amp;nbsp;&lt;/span&gt;&lt;span style=&quot;white-space: pre;&quot;&gt;&#x9;&lt;span style=&quot;white-space: pre;&quot;&gt;&#x9;&lt;/span&gt; &lt;/span&gt;&amp;nbsp;&lt;span style=&quot;text-wrap-mode: nowrap;&quot;&gt;varchar(50)&lt;/span&gt;" style="shape=partialRectangle;connectable=0;fillColor=none;top=0;left=0;bottom=0;right=0;align=left;spacingLeft=6;overflow=hidden;whiteSpace=wrap;html=1;fontSize=13;" vertex="1" parent="yg3bk4Q1aioawXfUhNpW-109">
          <mxGeometry x="30" width="210" height="30" as="geometry">
            <mxRectangle width="210" height="30" as="alternateBounds" />
          </mxGeometry>
        </mxCell>
        <mxCell id="yg3bk4Q1aioawXfUhNpW-112" value="" style="shape=tableRow;horizontal=0;startSize=0;swimlaneHead=0;swimlaneBody=0;fillColor=none;collapsible=0;dropTarget=0;points=[[0,0.5],[1,0.5]];portConstraint=eastwest;top=0;left=0;right=0;bottom=0;" vertex="1" parent="yg3bk4Q1aioawXfUhNpW-108">
          <mxGeometry y="60" width="240" height="30" as="geometry" />
        </mxCell>
        <mxCell id="yg3bk4Q1aioawXfUhNpW-113" value="" style="shape=partialRectangle;connectable=0;fillColor=none;top=0;left=0;bottom=0;right=0;editable=1;overflow=hidden;whiteSpace=wrap;html=1;" vertex="1" parent="yg3bk4Q1aioawXfUhNpW-112">
          <mxGeometry width="30" height="30" as="geometry">
            <mxRectangle width="30" height="30" as="alternateBounds" />
          </mxGeometry>
        </mxCell>
        <mxCell id="yg3bk4Q1aioawXfUhNpW-114" value="&lt;span style=&quot;text-wrap-mode: nowrap;&quot;&gt;anhos_experiencia&amp;nbsp;&lt;/span&gt;&lt;span style=&quot;white-space: pre;&quot;&gt;&#x9;&lt;/span&gt;&lt;span style=&quot;white-space-collapse: preserve;&quot;&gt;&amp;nbsp; &lt;/span&gt;&lt;span style=&quot;text-wrap-mode: nowrap;&quot;&gt;int&lt;/span&gt;" style="shape=partialRectangle;connectable=0;fillColor=none;top=0;left=0;bottom=0;right=0;align=left;spacingLeft=6;overflow=hidden;whiteSpace=wrap;html=1;fontSize=13;" vertex="1" parent="yg3bk4Q1aioawXfUhNpW-112">
          <mxGeometry x="30" width="210" height="30" as="geometry">
            <mxRectangle width="210" height="30" as="alternateBounds" />
          </mxGeometry>
        </mxCell>
        <mxCell id="CCJhi8ESBiJcHN0D21jL-27" value="Telefono" style="shape=associativeEntity;whiteSpace=wrap;html=1;align=center;" vertex="1" parent="1">
          <mxGeometry x="-330" y="165" width="140" height="60" as="geometry" />
        </mxCell>
        <mxCell id="CCJhi8ESBiJcHN0D21jL-28" value="(0..n)" style="text;html=1;align=center;verticalAlign=middle;resizable=0;points=[];autosize=1;strokeColor=none;fillColor=none;" vertex="1" parent="1">
          <mxGeometry x="-420" y="125" width="50" height="30" as="geometry" />
        </mxCell>
        <mxCell id="CCJhi8ESBiJcHN0D21jL-29" value="(1..1)" style="text;html=1;align=center;verticalAlign=middle;resizable=0;points=[];autosize=1;strokeColor=none;fillColor=none;" vertex="1" parent="1">
          <mxGeometry x="-175.09" y="125" width="50" height="30" as="geometry" />
        </mxCell>
        <mxCell id="yg3bk4Q1aioawXfUhNpW-128" value="(0..n)" style="text;html=1;align=center;verticalAlign=middle;resizable=0;points=[];autosize=1;strokeColor=none;fillColor=none;" vertex="1" parent="1">
          <mxGeometry x="-140" y="485" width="50" height="30" as="geometry" />
        </mxCell>
        <mxCell id="CCJhi8ESBiJcHN0D21jL-30" value="(0..n)" style="text;html=1;align=center;verticalAlign=middle;resizable=0;points=[];autosize=1;strokeColor=none;fillColor=none;" vertex="1" parent="1">
          <mxGeometry x="-285" y="563" width="50" height="30" as="geometry" />
        </mxCell>
        <mxCell id="CCJhi8ESBiJcHN0D21jL-31" value="(1..n)" style="text;html=1;align=center;verticalAlign=middle;resizable=0;points=[];autosize=1;strokeColor=none;fillColor=none;" vertex="1" parent="1">
          <mxGeometry x="-160" y="910" width="50" height="30" as="geometry" />
        </mxCell>
        <mxCell id="yg3bk4Q1aioawXfUhNpW-129" value="(0..n)" style="text;html=1;align=center;verticalAlign=middle;resizable=0;points=[];autosize=1;strokeColor=none;fillColor=none;" vertex="1" parent="1">
          <mxGeometry x="150.21000000000004" y="515" width="50" height="30" as="geometry" />
        </mxCell>
        <mxCell id="yg3bk4Q1aioawXfUhNpW-130" value="(0..n)" style="text;html=1;align=center;verticalAlign=middle;resizable=0;points=[];autosize=1;strokeColor=none;fillColor=none;" vertex="1" parent="1">
          <mxGeometry x="320" y="560" width="50" height="30" as="geometry" />
        </mxCell>
        <mxCell id="yg3bk4Q1aioawXfUhNpW-131" value="(0..n)" style="text;html=1;align=center;verticalAlign=middle;resizable=0;points=[];autosize=1;strokeColor=none;fillColor=none;" vertex="1" parent="1">
          <mxGeometry x="-380" y="165" width="50" height="30" as="geometry" />
        </mxCell>
        <mxCell id="CCJhi8ESBiJcHN0D21jL-32" value="(1..1)" style="text;html=1;align=center;verticalAlign=middle;resizable=0;points=[];autosize=1;strokeColor=none;fillColor=none;" vertex="1" parent="1">
          <mxGeometry x="154.91" y="910" width="50" height="30" as="geometry" />
        </mxCell>
        <mxCell id="CCJhi8ESBiJcHN0D21jL-34" style="edgeStyle=orthogonalEdgeStyle;rounded=0;orthogonalLoop=1;jettySize=auto;html=1;exitX=0.5;exitY=0;exitDx=0;exitDy=0;entryX=0.462;entryY=1;entryDx=0;entryDy=0;entryPerimeter=0;" edge="1" parent="1" source="yg3bk4Q1aioawXfUhNpW-19" target="yg3bk4Q1aioawXfUhNpW-112">
          <mxGeometry relative="1" as="geometry" />
        </mxCell>
        <mxCell id="CCJhi8ESBiJcHN0D21jL-37" style="edgeStyle=orthogonalEdgeStyle;rounded=0;orthogonalLoop=1;jettySize=auto;html=1;exitX=0.5;exitY=1;exitDx=0;exitDy=0;entryX=-0.008;entryY=0.275;entryDx=0;entryDy=0;entryPerimeter=0;" edge="1" parent="1" source="yg3bk4Q1aioawXfUhNpW-20" target="yg3bk4Q1aioawXfUhNpW-16">
          <mxGeometry relative="1" as="geometry" />
        </mxCell>
        <mxCell id="CCJhi8ESBiJcHN0D21jL-39" style="edgeStyle=orthogonalEdgeStyle;rounded=0;orthogonalLoop=1;jettySize=auto;html=1;exitX=0.5;exitY=0;exitDx=0;exitDy=0;" edge="1" parent="1" source="yg3bk4Q1aioawXfUhNpW-20">
          <mxGeometry relative="1" as="geometry">
            <mxPoint x="-300" y="561" as="targetPoint" />
            <Array as="points">
              <mxPoint x="-290" y="642" />
              <mxPoint x="-300" y="642" />
              <mxPoint x="-300" y="561" />
            </Array>
          </mxGeometry>
        </mxCell>
        <mxCell id="Jlevjr_1xgSs4-ezDy1q-1" value="N" style="text;html=1;align=center;verticalAlign=middle;resizable=0;points=[];autosize=1;strokeColor=none;fillColor=none;" vertex="1" parent="1">
          <mxGeometry x="-350" y="563" width="30" height="30" as="geometry" />
        </mxCell>
        <mxCell id="Jlevjr_1xgSs4-ezDy1q-2" value="N" style="text;html=1;align=center;verticalAlign=middle;resizable=0;points=[];autosize=1;strokeColor=none;fillColor=none;" vertex="1" parent="1">
          <mxGeometry x="-150" y="960" width="30" height="30" as="geometry" />
        </mxCell>
        <mxCell id="Jlevjr_1xgSs4-ezDy1q-4" value="N" style="text;html=1;align=center;verticalAlign=middle;resizable=0;points=[];autosize=1;strokeColor=none;fillColor=none;" vertex="1" parent="1">
          <mxGeometry x="159.91" y="960" width="30" height="30" as="geometry" />
        </mxCell>
        <mxCell id="Jlevjr_1xgSs4-ezDy1q-5" value="N" style="text;html=1;align=center;verticalAlign=middle;resizable=0;points=[];autosize=1;strokeColor=none;fillColor=none;" vertex="1" parent="1">
          <mxGeometry x="260.21" y="560" width="30" height="30" as="geometry" />
        </mxCell>
      </root>
    </mxGraphModel>
  </diagram>
</mxfile>
